<?xml version="1.0" encoding="UTF-8"?>
<svg xmlns="http://www.w3.org/2000/svg" xmlns:xlink="http://www.w3.org/1999/xlink" width="49pt" height="49pt" viewBox="0 0 49 49" version="1.1">
<g id="surface1">
<path style=" stroke:none;fill-rule:evenodd;fill:rgb(100%,100%,100%);fill-opacity:1;" d="M 0.433594 0.828125 L 48.433594 0.828125 L 48.433594 48.828125 L 0.433594 48.828125 L 0.433594 0.828125 "/>
<path style=" stroke:none;fill-rule:evenodd;fill:rgb(96.099854%,50.999451%,12.199402%);fill-opacity:1;" d="M 24.402344 7.300781 C 32.042969 7.300781 38.269531 13.296875 38.269531 20.644531 C 38.269531 23.136719 37.554688 25.464844 36.316406 27.464844 L 12.492188 27.464844 C 11.25 25.464844 10.535156 23.136719 10.535156 20.644531 C 10.535156 13.296875 16.765625 7.300781 24.402344 7.300781 "/>
<path style=" stroke:none;fill-rule:evenodd;fill:rgb(1.998901%,42.399597%,63.499451%);fill-opacity:1;" d="M 24.433594 1.945313 C 35.324219 1.945313 44.203125 10.773438 44.203125 21.589844 C 44.203125 24.613281 43.507813 27.476563 42.277344 30.042969 C 41.570313 32.054688 40.496094 33.898438 38.988281 35.714844 C 38.054688 36.671875 37.59375 35.660156 38.328125 35.0625 C 39.550781 33.628906 41.117188 31.054688 40.375 31.054688 L 30.613281 31.074219 C 29.863281 31.074219 26.964844 31.070313 26.144531 31.640625 C 25.824219 31.863281 23.78125 33.199219 23.253906 33.578125 C 22.664063 34 21.003906 35.191406 20.511719 35.898438 C 20.175781 36.589844 20.714844 37.351563 21.664063 37.265625 C 22.421875 37.199219 24.488281 34.992188 25.28125 34.699219 C 26.125 34.242188 27.695313 35.382813 28.117188 36.089844 C 28.835938 36.75 30.054688 36.472656 30.144531 35.890625 C 30.304688 35.6875 30.410156 35.394531 30.421875 35.183594 C 30.476563 34.085938 31.765625 35.535156 31.335938 36.03125 C 31.269531 36.109375 31.214844 36.367188 31.148438 36.472656 C 30.972656 36.757813 30.625 36.890625 30.488281 37.253906 C 29.953125 38.042969 31.867188 38.953125 32.039063 38.992188 C 33.273438 39.320313 34.03125 37.863281 34.738281 37.710938 C 35.085938 37.65625 36.878906 37.355469 36.839844 37.71875 C 36.261719 38.472656 35.683594 38.5625 34.300781 39.007813 C 33.40625 39.546875 33.351563 39.945313 33.609375 40.699219 C 33.671875 40.945313 33.976563 41.738281 33.605469 42.3125 C 33.253906 42.84375 32.328125 42.96875 32.195313 43.007813 C 32.121094 43.03125 32.039063 43.035156 31.949219 43.03125 C 31.355469 43.273438 31.882813 44.226563 30.621094 44.675781 C 30.601563 44.679688 30.132813 44.75 29.703125 44.734375 C 29.632813 44.730469 29.492188 44.789063 29.445313 44.875 C 29.398438 45.171875 29.3125 45.675781 29.035156 45.867188 C 28.636719 46.097656 27.957031 46.066406 27.632813 46.125 C 27.527344 46.148438 27.441406 46.316406 27.488281 46.390625 C 27.578125 48.101563 25.222656 48.148438 24.027344 46.570313 C 23.742188 46.191406 23.082031 47.46875 22.339844 47.605469 C 21.492188 47.625 20.679688 47.355469 20.402344 46.085938 C 19.105469 46.125 18.46875 45.945313 18.457031 44.441406 C 17.246094 44.636719 16.414063 44.210938 16.128906 42.734375 C 14.128906 42.949219 13.667969 40.964844 14.851563 39.953125 C 15.007813 39.722656 14.871094 39.5625 14.585938 39.285156 C 13.609375 38.417969 12.628906 38.40625 12.167969 38.0625 C 11.988281 37.929688 11.953125 37.71875 12.0625 37.484375 C 12.820313 37.390625 13.632813 37.472656 14.214844 37.710938 C 14.925781 38.101563 15.03125 38.539063 15.625 38.882813 C 16.875 39.160156 16.84375 38.09375 18.144531 38.21875 C 18.628906 38.179688 19.027344 38.597656 19.320313 39.648438 C 19.382813 39.6875 19.5 39.734375 19.726563 39.753906 C 20.691406 39.535156 21.460938 40.191406 21.484375 41.101563 C 21.625 41.296875 21.71875 41.351563 21.796875 41.328125 C 22.710938 41.078125 23.332031 41.296875 23.539063 42.519531 C 24.695313 42.488281 24.722656 42.660156 25.507813 43.988281 C 26.800781 43.941406 27.378906 44.636719 27.613281 45.28125 C 27.742188 45.292969 27.875 45.292969 28.007813 45.277344 C 28.507813 45.207031 28.808594 44.722656 28.644531 44.28125 C 28.503906 44.023438 28.105469 43.675781 27.550781 43.273438 C 26.203125 42.308594 24.984375 41.410156 24.65625 41.097656 C 24.429688 40.808594 24.46875 40.382813 24.429688 40.164063 C 24.332031 39.488281 24.9375 39.867188 24.992188 40.460938 C 25.285156 40.476563 28.828125 42.789063 29.21875 43.222656 C 29.6875 43.492188 30.726563 43.835938 30.773438 42.929688 C 30.773438 42.519531 30.515625 42.273438 30.429688 42.21875 C 29.179688 41.359375 27.613281 40.066406 26.59375 39.476563 C 26.023438 39.257813 26.394531 38.648438 26.6875 38.320313 C 27.117188 37.929688 31.734375 42.328125 32.632813 41.976563 C 32.914063 41.988281 32.984375 41.546875 32.929688 41.296875 C 32.714844 40.351563 31.152344 39.589844 30.171875 38.828125 C 29.878906 38.828125 26.769531 36.261719 26.652344 36.121094 C 25.859375 35.707031 25.050781 35.777344 24.179688 36.65625 C 23.746094 37.425781 21.628906 38.84375 20.433594 37.71875 C 19.289063 37.121094 18.792969 36.269531 19.640625 35.375 C 19.957031 34.867188 23.675781 32.21875 23.875 31.75 C 23.769531 30.785156 15.039063 31.082031 8.992188 31.09375 C 7.5625 31.691406 12.851563 36.300781 10.480469 36.117188 C 8.945313 34.460938 7.59375 32.417969 6.589844 30.039063 L 6.59375 30.039063 C 5.359375 27.476563 4.664063 24.613281 4.664063 21.589844 C 4.664063 10.773438 13.542969 1.945313 24.433594 1.945313 Z M 38.777344 30.03125 C 40.261719 27.558594 41.113281 24.671875 41.113281 21.589844 C 41.113281 12.460938 33.621094 5.011719 24.433594 5.011719 C 15.246094 5.011719 7.753906 12.460938 7.753906 21.589844 C 7.753906 24.671875 8.609375 27.5625 10.09375 30.039063 L 21.910156 30.039063 C 23.714844 30.039063 24.253906 30.347656 24.992188 31.15625 C 25.605469 30.699219 26.171875 30.3125 26.964844 30.03125 Z M 25.070313 45.277344 C 25.355469 45.0625 26.183594 45.046875 26.480469 45.609375 C 26.773438 46.171875 26.8125 46.621094 26.496094 46.871094 C 26.175781 47.125 25.429688 46.964844 25.078125 46.5 C 24.734375 46.035156 24.792969 45.484375 25.070313 45.277344 Z M 22.464844 44.609375 C 23.273438 43.796875 24.128906 43.339844 24.429688 43.777344 C 24.734375 44.214844 24.753906 44.875 23.425781 45.828125 C 22.292969 46.792969 22 47.15625 21.378906 46.316406 C 21.136719 45.960938 21.378906 45.394531 22.464844 44.609375 Z M 20.503906 43.105469 C 21.308594 42.296875 22.167969 41.835938 22.464844 42.273438 C 22.769531 42.710938 22.789063 43.375 21.460938 44.324219 C 20.332031 45.292969 20.039063 45.652344 19.414063 44.816406 C 19.171875 44.457031 19.414063 43.894531 20.503906 43.105469 Z M 18.480469 41.585938 C 19.289063 40.773438 20.144531 40.316406 20.445313 40.753906 C 20.746094 41.191406 20.765625 41.851563 19.441406 42.804688 C 18.308594 43.769531 18.019531 44.132813 17.394531 43.292969 C 17.152344 42.9375 17.390625 42.371094 18.480469 41.585938 Z M 16.378906 39.980469 C 17.246094 39.234375 18.199219 38.972656 18.441406 39.332031 C 18.683594 39.6875 18.582031 40.210938 17.253906 41.160156 C 16.128906 42.128906 15.652344 42.25 15.191406 41.707031 C 14.949219 41.355469 15.289063 40.769531 16.378906 39.980469 "/>
</g>
</svg>
